# xmcd CD database file
#
# Track frame offsets:
#	150
#	13346
#	39804
#	60985
#	75131
#	87870
#	102099
#	116168
#	129752
#	143603
#
# Disc length: 2186 seconds
#
# Revision: 0
# Processed by: cddbd v1.5.2PL0 Copyright (c) Steve Scherf et al.
# Submitted via: CDex 1.70beta2
#
DISCID=6808880a
DTITLE=Various Artist - Wielkie głosy bluesa
DYEAR=2009
DGENRE=Jazz
TTITLE0=T-Bone Walker - Vacation Blues
TTITLE1=Billie Holiday - I Got A Right To Sign The Blues
TTITLE2=Big Bill Broonzy - Back Water Blues
TTITLE3=Ella Fitzgerald - Basin Street Blues
TTITLE4=Sonny Terry and Brownie McGhee - Airplane Blues
TTITLE5=Bessie Smith - Black Mountain Blues
TTITLE6=Lee 'Sonny Boy' iliamson - Bring Anothrt Half A Pint
TTITLE7=T-Bone Walker - Wise Man Blues
TTITLE8=I Want You To Love Me
TTITLE9=Big Bill Bronnzy - Louise, Louise Blues
EXTD=YEAR: 2009
EXTT0=
EXTT1=
EXTT2=
EXTT3=
EXTT4=
EXTT5=
EXTT6=
EXTT7=
EXTT8=
EXTT9=
PLAYORDER=
